<?xml version="1.0" encoding="utf-8"?>
<svg viewBox="6.755 6.755 486.49 486.49" xmlns="http://www.w3.org/2000/svg" xmlns:bx="https://boxy-svg.com">
  <ellipse style="fill: none; stroke: rgb(85, 147, 218); stroke-width: 6;" transform="matrix(0, 1, -1, 0, 774.89502, -28.474032)" cx="278.474" cy="524.895" rx="240.245" ry="240.245"/>
  <path d="M 825.372 169.304 L 879.411 262.902 L 771.332 262.902 L 825.372 169.304 Z" style="fill: rgb(85, 147, 218);" bx:shape="triangle 771.332 169.304 108.079 93.598 0.5 0 1@b1058dbb"/>
  <g transform="matrix(1, 0, 0, 1, 575.371094, -23.897202)">
    <path d="M 149.551 206.157 L 190.19 206.157 L 190.19 246.795 L 149.551 206.157 Z" style="fill: rgb(85, 147, 218);" transform="matrix(0.707107, 0.707107, -0.707107, 0.707107, 209.896649, -53.783298)"/>
    <ellipse style="fill: rgb(255, 255, 255); stroke: rgb(85, 147, 218); stroke-width: 6;" transform="matrix(-0.707107, 0.707107, -0.707107, -0.707107, 430.822146, 263.486698)" cx="179.063" cy="231.405" rx="38.296" ry="38.296"/>
  </g>
  <path d="M 711.262 178.994 H 720.337 V 197.146 H 738.489 V 206.221 H 720.337 V 224.374 H 711.262 V 206.221 H 693.109 V 197.146 H 711.262 Z" style="fill: rgb(77, 202, 110);" bx:shape="cross 693.109 178.994 45.38 45.38 9.075 9.075 0.5 1@f34e5083"/>
</svg>